<?xml version="1.0" encoding="UTF-8" standalone="no"?>
<!-- Created with Inkscape (http://www.inkscape.org/) -->
<svg
   xmlns:dc="http://purl.org/dc/elements/1.1/"
   xmlns:cc="http://web.resource.org/cc/"
   xmlns:rdf="http://www.w3.org/1999/02/22-rdf-syntax-ns#"
   xmlns:svg="http://www.w3.org/2000/svg"
   xmlns="http://www.w3.org/2000/svg"
   xmlns:xlink="http://www.w3.org/1999/xlink"
   xmlns:sodipodi="http://sodipodi.sourceforge.net/DTD/sodipodi-0.dtd"
   xmlns:inkscape="http://www.inkscape.org/namespaces/inkscape"
   width="250"
   height="125"
   id="svg2"
   sodipodi:version="0.32"
   inkscape:version="0.45.1"
   sodipodi:docbase="/home/dermeister/desenhos_svg"
   sodipodi:docname="sked_logo_1.svg"
   inkscape:output_extension="org.inkscape.output.svg.inkscape"
   version="1.0"
   inkscape:export-filename="/home/dermeister/desenhos_svg/sked_logo_2.png"
   inkscape:export-xdpi="144"
   inkscape:export-ydpi="144">
  <defs
     id="defs4">
    <linearGradient
       id="linearGradient5796">
      <stop
         style="stop-color:#0000ff;stop-opacity:1;"
         offset="0"
         id="stop5798" />
      <stop
         style="stop-color:#ffffff;stop-opacity:1;"
         offset="1"
         id="stop5800" />
    </linearGradient>
    <linearGradient
       id="linearGradient5092">
      <stop
         id="stop5094"
         offset="0"
         style="stop-color:#004dff;stop-opacity:1;" />
      <stop
         id="stop5096"
         offset="1"
         style="stop-color:#d9daf2;stop-opacity:1;" />
    </linearGradient>
    <linearGradient
       id="linearGradient5002">
      <stop
         id="stop5004"
         offset="0"
         style="stop-color:#006eff;stop-opacity:1;" />
      <stop
         id="stop5006"
         offset="1"
         style="stop-color:#ffffff;stop-opacity:1;" />
    </linearGradient>
    <linearGradient
       id="linearGradient4268">
      <stop
         style="stop-color:#6a9ddf;stop-opacity:1;"
         offset="0"
         id="stop4270" />
      <stop
         style="stop-color:#e8effb;stop-opacity:1;"
         offset="1"
         id="stop4272" />
    </linearGradient>
    <linearGradient
       id="linearGradient4192">
      <stop
         style="stop-color:#2f76d3;stop-opacity:1;"
         offset="0"
         id="stop4194" />
      <stop
         style="stop-color:#ffffff;stop-opacity:1;"
         offset="1"
         id="stop4196" />
    </linearGradient>
    <linearGradient
       id="linearGradient4120">
      <stop
         style="stop-color:#1a4379;stop-opacity:1;"
         offset="0"
         id="stop4122" />
      <stop
         style="stop-color:#e8effb;stop-opacity:1;"
         offset="1"
         id="stop4124" />
    </linearGradient>
    <linearGradient
       inkscape:collect="always"
       xlink:href="#linearGradient5092"
       id="linearGradient5090"
       x1="647.49353"
       y1="876.85071"
       x2="645.47327"
       y2="780.88623"
       gradientUnits="userSpaceOnUse"
       gradientTransform="translate(-67.680221,-41.416254)" />
    <linearGradient
       inkscape:collect="always"
       xlink:href="#linearGradient5092"
       id="linearGradient5226"
       gradientUnits="userSpaceOnUse"
       gradientTransform="translate(-575.26765,-71.755815)"
       x1="647.49353"
       y1="876.85071"
       x2="645.47327"
       y2="780.88623" />
    <filter
       inkscape:collect="always"
       id="filter5366">
      <feGaussianBlur
         inkscape:collect="always"
         stdDeviation="2.9635954"
         id="feGaussianBlur5368" />
    </filter>
    <linearGradient
       inkscape:collect="always"
       xlink:href="#linearGradient5796"
       id="linearGradient5802"
       x1="128.93633"
       y1="989.52148"
       x2="129.19843"
       y2="965.28119"
       gradientUnits="userSpaceOnUse"
       gradientTransform="matrix(2.1186543,0,0,2.2726721,-107.28316,-1271.8235)" />
    <linearGradient
       inkscape:collect="always"
       xlink:href="#linearGradient5796"
       id="linearGradient5993"
       gradientUnits="userSpaceOnUse"
       gradientTransform="matrix(2.1186543,0,0,2.2726721,-107.28316,-1271.8235)"
       x1="128.93633"
       y1="989.52148"
       x2="129.19843"
       y2="965.28119" />
    <linearGradient
       inkscape:collect="always"
       xlink:href="#linearGradient5092"
       id="linearGradient3914"
       gradientUnits="userSpaceOnUse"
       gradientTransform="translate(-598.29937,-743.724)"
       x1="647.49353"
       y1="876.85071"
       x2="645.47327"
       y2="780.88623" />
    <linearGradient
       inkscape:collect="always"
       xlink:href="#linearGradient5092"
       id="linearGradient3917"
       gradientUnits="userSpaceOnUse"
       gradientTransform="translate(-589.19623,-545.94181)"
       x1="647.49353"
       y1="876.85071"
       x2="645.47327"
       y2="780.88623" />
    <linearGradient
       inkscape:collect="always"
       xlink:href="#linearGradient5092"
       id="linearGradient3922"
       gradientUnits="userSpaceOnUse"
       gradientTransform="translate(-587.57329,-357.89921)"
       x1="647.49353"
       y1="876.85071"
       x2="645.47327"
       y2="780.88623" />
    <linearGradient
       inkscape:collect="always"
       xlink:href="#linearGradient5092"
       id="linearGradient5013"
       gradientUnits="userSpaceOnUse"
       gradientTransform="translate(-551.71723,-170.85215)"
       x1="647.49353"
       y1="876.85071"
       x2="645.47327"
       y2="780.88623" />
    <filter
       inkscape:collect="always"
       id="filter5990">
      <feGaussianBlur
         inkscape:collect="always"
         stdDeviation="2.7544584"
         id="feGaussianBlur5992" />
    </filter>
    <linearGradient
       inkscape:collect="always"
       xlink:href="#linearGradient5092"
       id="linearGradient6965"
       gradientUnits="userSpaceOnUse"
       gradientTransform="translate(-549.64498,29.191437)"
       x1="647.49353"
       y1="876.85071"
       x2="645.47327"
       y2="780.88623" />
    <filter
       inkscape:collect="always"
       id="filter7936">
      <feGaussianBlur
         inkscape:collect="always"
         stdDeviation="1.9478642"
         id="feGaussianBlur7938" />
    </filter>
    <linearGradient
       inkscape:collect="always"
       xlink:href="#linearGradient5092"
       id="linearGradient7946"
       gradientUnits="userSpaceOnUse"
       gradientTransform="translate(-548.22257,196.98804)"
       x1="647.49353"
       y1="876.85071"
       x2="645.47327"
       y2="780.88623" />
    <radialGradient
       inkscape:collect="always"
       xlink:href="#linearGradient4192"
       id="radialGradient8046"
       cx="144.28572"
       cy="1033.4336"
       fx="144.28572"
       fy="1033.4336"
       r="102.14285"
       gradientTransform="matrix(1,0,0,0.4160839,0,603.43848)"
       gradientUnits="userSpaceOnUse" />
    <linearGradient
       inkscape:collect="always"
       xlink:href="#linearGradient5092"
       id="linearGradient8068"
       gradientUnits="userSpaceOnUse"
       gradientTransform="translate(-548.22257,196.98804)"
       x1="647.49353"
       y1="876.85071"
       x2="645.47327"
       y2="780.88623" />
    <linearGradient
       inkscape:collect="always"
       xlink:href="#linearGradient5092"
       id="linearGradient8071"
       gradientUnits="userSpaceOnUse"
       gradientTransform="translate(-548.22257,196.98804)"
       x1="647.49353"
       y1="876.85071"
       x2="645.47327"
       y2="780.88623" />
    <linearGradient
       inkscape:collect="always"
       xlink:href="#linearGradient5092"
       id="linearGradient8079"
       gradientUnits="userSpaceOnUse"
       gradientTransform="translate(-548.22257,196.98804)"
       x1="647.49353"
       y1="876.85071"
       x2="645.47327"
       y2="780.88623" />
    <linearGradient
       inkscape:collect="always"
       xlink:href="#linearGradient5092"
       id="linearGradient8082"
       gradientUnits="userSpaceOnUse"
       gradientTransform="translate(-548.22257,196.98804)"
       x1="647.49353"
       y1="876.85071"
       x2="645.47327"
       y2="780.88623" />
  </defs>
  <sodipodi:namedview
     id="base"
     pagecolor="#ffffff"
     bordercolor="#666666"
     borderopacity="1.0"
     inkscape:pageopacity="0.0"
     inkscape:pageshadow="2"
     inkscape:zoom="1.4"
     inkscape:cx="368.5784"
     inkscape:cy="49.983014"
     inkscape:document-units="px"
     inkscape:current-layer="layer1"
     inkscape:window-width="1280"
     inkscape:window-height="745"
     inkscape:window-x="0"
     inkscape:window-y="25"
     showguides="true"
     inkscape:guide-bbox="true"
     height="125px"
     width="250px" />
  <metadata
     id="metadata7">
    <rdf:RDF>
      <cc:Work
         rdf:about="">
        <dc:format>image/svg+xml</dc:format>
        <dc:type
           rdf:resource="http://purl.org/dc/dcmitype/StillImage" />
      </cc:Work>
    </rdf:RDF>
  </metadata>
  <g
     inkscape:label="Camada 1"
     inkscape:groupmode="layer"
     id="layer1"
     transform="translate(-28.651078,-378.98744)">
    <path
       style="font-size:144px;font-style:italic;font-variant:normal;font-weight:bold;font-stretch:normal;text-align:start;line-height:100%;writing-mode:lr-tb;text-anchor:start;opacity:0.2;fill:#000000;fill-opacity:1;stroke:none;stroke-width:0.35433072;stroke-linecap:butt;stroke-linejoin:miter;stroke-miterlimit:4;stroke-opacity:1;filter:url(#filter5990);font-family:URW Chancery L"
       d="M 36.415649,453.57315 L 30.079649,468.54915 C 35.119644,475.31714 41.887659,478.48515 51.247649,478.48515 C 73.279627,478.48515 94.879634,460.48513 94.879634,442.19715 C 94.879634,436.29316 92.575624,433.26914 81.919642,424.91715 C 71.40766,416.70916 69.679649,414.26115 69.679649,408.06915 C 69.679649,398.70916 76.735658,390.64515 85.231638,390.64515 C 91.279634,390.64515 93.439644,393.23716 95.023634,402.45315 L 104.52764,395.68515 C 103.66364,387.76516 99.343624,383.87715 91.711634,383.87715 C 76.879664,383.87715 60.031649,400.29317 60.031649,414.54915 C 60.031649,421.02915 63.055658,425.78116 71.407649,432.26115 C 81.199642,440.03714 89.505924,444.63945 89.505924,451.26344 C 89.505924,462.49543 72.991637,471.71715 60.463649,471.71715 C 54.271656,471.71715 47.935646,468.98115 44.047649,464.66115 C 41.023652,461.34915 39.871648,458.32515 38.719649,451.98915 L 36.415649,453.57315 M 97.911214,480.2023 C 99.495214,479.6263 100.93521,479.0503 101.36721,478.9063 C 102.23122,478.6183 103.67122,478.1863 105.25522,477.6103 C 105.68722,477.4663 106.98322,477.0343 108.42322,476.6023 L 114.03922,450.9703 L 117.35122,448.9543 C 120.23122,455.57829 120.80722,456.73031 125.41522,467.6743 C 131.60721,482.36229 135.35122,488.26631 141.25522,492.87425 C 147.44721,497.62625 156.37523,500.65025 164.00722,500.65025 C 170.63121,500.65025 175.38322,499.21025 179.70322,495.61025 L 176.82322,485.2423 C 172.21522,493.01825 168.03921,496.04225 161.99122,496.04225 C 155.79922,496.04225 149.60721,491.14627 144.71122,482.3623 C 141.83122,476.89031 141.8312,476.89027 125.41522,442.1863 L 135.06322,433.4023 C 140.67921,428.36231 142.40722,427.3543 145.14322,427.3543 C 147.59122,427.3543 149.31922,428.5063 151.62322,431.5303 L 158.96722,420.5863 C 156.23122,418.4263 154.07122,417.7063 150.90322,417.7063 C 147.15922,417.7063 144.56721,419.00231 140.24722,423.0343 C 135.63922,427.3543 135.49522,427.6423 134.05522,428.9383 L 115.47922,445.4983 L 120.95122,423.4663 C 125.55921,404.45832 127.14322,399.8503 129.59122,395.8183 C 132.18322,391.64231 135.92722,389.6263 140.82322,389.6263 C 142.26322,389.6263 143.27122,389.7703 145.86322,390.2023 L 151.62322,381.8503 C 149.75122,381.5623 148.74322,381.4183 147.44722,381.4183 C 142.26322,381.4183 138.80721,382.5703 134.34322,385.8823 C 125.12723,392.3623 118.64722,398.69831 116.77522,402.8743 C 115.33522,406.0423 112.59922,415.54631 110.72722,423.8983 L 97.911214,480.2023 M 194.4559,457.10459 C 183.65591,466.46458 176.74389,470.49659 171.2719,470.49659 C 167.6719,470.49659 164.6479,468.04859 163.6399,464.30459 C 163.0639,462.00059 162.9199,460.41659 162.9199,456.24059 C 169.39989,452.2086 173.71991,449.18459 182.2159,442.84859 C 189.99189,436.9446 193.0159,432.19259 193.0159,425.71259 C 193.0159,420.6726 189.84789,417.64859 184.8079,417.64859 C 181.6399,417.64859 179.3359,418.36859 176.0239,420.24059 C 170.5519,423.40859 165.6559,427.2966 162.6319,430.75259 C 157.1599,437.37658 152.2639,453.2166 152.2639,464.88059 C 152.2639,473.37658 156.72791,478.70459 164.0719,478.70459 C 172.56789,478.70459 183.07991,472.65658 194.4559,461.28059 L 194.4559,457.10459 M 163.3519,451.05659 C 165.7999,435.64861 172.4239,423.69659 178.6159,423.69659 C 181.0639,423.69659 182.6479,426.1446 182.6479,429.60059 C 182.6479,436.80058 178.75988,441.1206 163.3519,451.05659 M 257.38425,458.32573 C 255.51225,459.47773 254.07225,460.48573 253.35225,460.91773 C 245.43226,466.38973 241.40025,468.69373 240.10425,468.69373 C 238.95225,468.69373 238.08825,467.10973 238.08825,464.94973 C 238.08825,460.19774 250.18425,408.06972 253.20825,399.14173 C 256.37625,390.50174 259.54425,387.18973 264.72825,387.18973 C 266.60025,387.18973 268.04025,387.47773 271.35225,388.34173 L 276.39225,380.27773 C 274.23225,379.84573 273.08025,379.70173 271.78425,379.70173 C 268.32825,379.70173 266.45625,380.27773 263.14425,382.14973 C 259.54425,384.16573 254.64824,387.90974 250.61625,391.65373 C 243.56026,398.42172 243.12824,399.42975 239.38425,414.26173 C 239.24025,414.83773 238.80825,416.70973 238.23225,418.86973 C 235.64025,418.29373 233.48025,418.00573 232.32825,418.00573 C 227.86425,418.00573 215.48024,425.78174 209.72025,432.11773 C 204.82425,437.73373 198.34425,458.03774 198.34425,467.97373 C 198.34425,473.44573 201.22425,479.06173 203.81625,479.06173 C 206.55225,479.06173 212.88826,475.17372 228.00825,464.22973 C 227.28825,467.82973 226.85625,472.00573 226.85625,474.59773 C 226.85625,477.47773 228.00825,479.06173 230.02425,479.06173 C 232.32825,479.06173 244.85626,471.42972 256.80825,462.78973 L 257.38425,458.32573 M 229.16025,458.90173 C 216.92026,467.54172 213.75225,469.41373 211.73625,469.41373 C 209.72025,469.41373 208.71225,467.25373 208.71225,463.07773 C 208.71225,458.32574 209.57625,452.85373 211.30425,446.51773 C 215.48024,431.97375 221.09626,424.77373 228.44025,424.77373 C 231.03225,424.77373 232.90425,425.78173 235.92825,428.66173 L 229.16025,458.90173"
       id="path3926"
       sodipodi:nodetypes="ccsscssccsscssccccsccccccsccscccsccscccccsccscccccscccssccsscccsscccsscsccsccccscsscsscccsscscc" />
    <path
       style="font-size:144px;font-style:italic;font-variant:normal;font-weight:bold;font-stretch:normal;text-align:start;line-height:100%;writing-mode:lr-tb;text-anchor:start;fill:url(#linearGradient3922);fill-opacity:1;stroke:#000000;stroke-width:0.35433072;stroke-linecap:butt;stroke-linejoin:miter;stroke-miterlimit:4;stroke-opacity:1;font-family:URW Chancery L"
       d="M 38.242467,455.45836 L 31.906467,470.43436 C 36.946462,477.20235 43.714477,480.37036 53.074467,480.37036 C 75.106445,480.37036 96.706456,462.37034 96.706456,444.08236 C 96.706456,438.17837 94.402446,435.15435 83.74646,426.80236 C 73.234478,418.59437 71.506467,416.14636 71.506467,409.95436 C 71.506467,400.59437 78.562476,392.53036 87.058456,392.53036 C 93.106456,392.53036 95.266466,395.12237 96.850456,404.33836 L 106.35446,397.57036 C 105.49046,389.65037 101.17045,385.76236 93.538456,385.76236 C 78.706482,385.76236 61.858467,402.17838 61.858467,416.43436 C 61.858467,422.91436 64.882476,427.66637 73.234467,434.14636 C 83.02646,441.92235 91.332746,446.52466 91.332746,453.14865 C 91.332746,464.38064 74.818455,473.60236 62.290467,473.60236 C 56.098474,473.60236 49.762464,470.86636 45.874467,466.54636 C 42.85047,463.23436 41.698466,460.21036 40.546467,453.87436 L 38.242467,455.45836 M 99.738036,482.08751 C 101.32204,481.51151 102.76204,480.93551 103.19404,480.79151 C 104.05804,480.50351 105.49804,480.07151 107.08204,479.49551 C 107.51404,479.35151 108.81004,478.91951 110.25004,478.48751 L 115.86604,452.85551 L 119.17804,450.83951 C 122.05804,457.4635 122.63404,458.61552 127.24204,469.55951 C 133.43403,484.2475 137.17804,490.15152 143.08204,494.75948 C 149.27403,499.51148 158.20205,502.53548 165.83404,502.53548 C 172.45803,502.53548 177.21004,501.09548 181.53004,497.49548 L 178.65004,487.12751 C 174.04204,494.90348 169.86603,497.92748 163.81804,497.92748 C 157.62604,497.92748 151.43403,493.03148 146.53804,484.24751 C 143.65804,478.77552 143.65802,478.77548 127.24204,444.07151 L 136.89004,435.28751 C 142.50603,430.24752 144.23404,429.23951 146.97004,429.23951 C 149.41804,429.23951 151.14604,430.39151 153.45004,433.41551 L 160.79404,422.47151 C 158.05804,420.31151 155.89804,419.59151 152.73004,419.59151 C 148.98604,419.59151 146.39403,420.88752 142.07404,424.91951 C 137.46604,429.23951 137.32204,429.52751 135.88204,430.82351 L 117.30604,447.38351 L 122.77804,425.35151 C 127.38603,406.34353 128.97004,401.73551 131.41804,397.70351 C 134.01004,393.52752 137.75404,391.51151 142.65004,391.51151 C 144.09004,391.51151 145.09804,391.65551 147.69004,392.08751 L 153.45004,383.73551 C 151.57804,383.44751 150.57004,383.30351 149.27404,383.30351 C 144.09004,383.30351 140.63403,384.45551 136.17004,387.76751 C 126.95405,394.24751 120.47404,400.58352 118.60204,404.75951 C 117.16204,407.92751 114.42604,417.43152 112.55404,425.78351 L 99.738036,482.08751 M 196.28272,458.9898 C 185.48273,468.34979 178.57071,472.3818 173.09872,472.3818 C 169.49872,472.3818 166.47472,469.9338 165.46672,466.1898 C 164.89072,463.8858 164.74672,462.3018 164.74672,458.1258 C 171.22671,454.09381 175.54673,451.0698 184.04272,444.7338 C 191.81871,438.82981 194.84272,434.0778 194.84272,427.5978 C 194.84272,422.55781 191.67471,419.5338 186.63472,419.5338 C 183.46672,419.5338 181.16272,420.2538 177.85072,422.1258 C 172.37872,425.2938 167.48272,429.18181 164.45872,432.6378 C 158.98672,439.26179 154.09072,455.10181 154.09072,466.7658 C 154.09072,475.26179 158.55473,480.5898 165.89872,480.5898 C 174.39471,480.5898 184.90673,474.54179 196.28272,463.1658 L 196.28272,458.9898 M 165.17872,452.9418 C 167.62672,437.53382 174.25072,425.5818 180.44272,425.5818 C 182.89072,425.5818 184.47472,428.02981 184.47472,431.4858 C 184.47472,438.68579 180.5867,443.00581 165.17872,452.9418 M 259.21107,460.21094 C 257.33907,461.36294 255.89907,462.37094 255.17907,462.80294 C 247.25908,468.27494 243.22707,470.57894 241.93107,470.57894 C 240.77907,470.57894 239.91507,468.99494 239.91507,466.83494 C 239.91507,462.08295 252.01107,409.95493 255.03507,401.02694 C 258.20307,392.38695 261.37107,389.07494 266.55507,389.07494 C 268.42707,389.07494 269.86707,389.36294 273.17907,390.22694 L 278.21907,382.16294 C 276.05907,381.73094 274.90707,381.58694 273.61107,381.58694 C 270.15507,381.58694 268.28307,382.16294 264.97107,384.03494 C 261.37107,386.05094 256.47506,389.79495 252.44307,393.53894 C 245.38708,400.30693 244.95506,401.31496 241.21107,416.14694 C 241.06707,416.72294 240.63507,418.59494 240.05907,420.75494 C 237.46707,420.17894 235.30707,419.89094 234.15507,419.89094 C 229.69107,419.89094 217.30706,427.66695 211.54707,434.00294 C 206.65107,439.61894 200.17107,459.92295 200.17107,469.85894 C 200.17107,475.33094 203.05107,480.94694 205.64307,480.94694 C 208.37907,480.94694 214.71508,477.05893 229.83507,466.11494 C 229.11507,469.71494 228.68307,473.89094 228.68307,476.48294 C 228.68307,479.36294 229.83507,480.94694 231.85107,480.94694 C 234.15507,480.94694 246.68308,473.31493 258.63507,464.67494 L 259.21107,460.21094 M 230.98707,460.78694 C 218.74708,469.42693 215.57907,471.29894 213.56307,471.29894 C 211.54707,471.29894 210.53907,469.13894 210.53907,464.96294 C 210.53907,460.21095 211.40307,454.73894 213.13107,448.40294 C 217.30706,433.85896 222.92308,426.65894 230.26707,426.65894 C 232.85907,426.65894 234.73107,427.66694 237.75507,430.54694 L 230.98707,460.78694"
       id="path3920"
       sodipodi:nodetypes="ccsscssccsscssccccsccccccsccscccsccscccccsccscccccscccssccsscccsscccsscsccsccccscsscsscccsscscc" />
  </g>
</svg>
