<?xml version="1.0" encoding="UTF-8" standalone="no"?>
<!-- Created with Inkscape (http://www.inkscape.org/) -->
<svg
   xmlns:dc="http://purl.org/dc/elements/1.1/"
   xmlns:cc="http://web.resource.org/cc/"
   xmlns:rdf="http://www.w3.org/1999/02/22-rdf-syntax-ns#"
   xmlns:svg="http://www.w3.org/2000/svg"
   xmlns="http://www.w3.org/2000/svg"
   xmlns:xlink="http://www.w3.org/1999/xlink"
   xmlns:sodipodi="http://sodipodi.sourceforge.net/DTD/sodipodi-0.dtd"
   xmlns:inkscape="http://www.inkscape.org/namespaces/inkscape"
   width="210mm"
   height="297mm"
   id="svg2"
   sodipodi:version="0.32"
   inkscape:version="0.45.1"
   sodipodi:docbase="/home/dermeister/desenhos_svg"
   sodipodi:docname="sked.svg"
   inkscape:output_extension="org.inkscape.output.svg.inkscape">
  <defs
     id="defs4">
    <linearGradient
       id="linearGradient5796">
      <stop
         style="stop-color:#0000ff;stop-opacity:1;"
         offset="0"
         id="stop5798" />
      <stop
         style="stop-color:#ffffff;stop-opacity:1;"
         offset="1"
         id="stop5800" />
    </linearGradient>
    <linearGradient
       id="linearGradient5092">
      <stop
         id="stop5094"
         offset="0"
         style="stop-color:#004dff;stop-opacity:1;" />
      <stop
         id="stop5096"
         offset="1"
         style="stop-color:#d9daf2;stop-opacity:1;" />
    </linearGradient>
    <linearGradient
       id="linearGradient5002">
      <stop
         id="stop5004"
         offset="0"
         style="stop-color:#006eff;stop-opacity:1;" />
      <stop
         id="stop5006"
         offset="1"
         style="stop-color:#ffffff;stop-opacity:1;" />
    </linearGradient>
    <linearGradient
       id="linearGradient4268">
      <stop
         style="stop-color:#6a9ddf;stop-opacity:1;"
         offset="0"
         id="stop4270" />
      <stop
         style="stop-color:#e8effb;stop-opacity:1;"
         offset="1"
         id="stop4272" />
    </linearGradient>
    <linearGradient
       id="linearGradient4192">
      <stop
         style="stop-color:#2f76d3;stop-opacity:1;"
         offset="0"
         id="stop4194" />
      <stop
         style="stop-color:#ffffff;stop-opacity:1;"
         offset="1"
         id="stop4196" />
    </linearGradient>
    <linearGradient
       id="linearGradient4120">
      <stop
         style="stop-color:#1a4379;stop-opacity:1;"
         offset="0"
         id="stop4122" />
      <stop
         style="stop-color:#e8effb;stop-opacity:1;"
         offset="1"
         id="stop4124" />
    </linearGradient>
    <linearGradient
       inkscape:collect="always"
       xlink:href="#linearGradient5092"
       id="linearGradient5090"
       x1="647.49353"
       y1="876.85071"
       x2="645.47327"
       y2="780.88623"
       gradientUnits="userSpaceOnUse"
       gradientTransform="translate(-67.680221,-41.416254)" />
    <filter
       inkscape:collect="always"
       id="filter5218">
      <feGaussianBlur
         inkscape:collect="always"
         stdDeviation="3.9288558"
         id="feGaussianBlur5220" />
    </filter>
    <linearGradient
       inkscape:collect="always"
       xlink:href="#linearGradient5092"
       id="linearGradient5226"
       gradientUnits="userSpaceOnUse"
       gradientTransform="translate(-575.26765,-71.755815)"
       x1="647.49353"
       y1="876.85071"
       x2="645.47327"
       y2="780.88623" />
    <filter
       inkscape:collect="always"
       id="filter5366">
      <feGaussianBlur
         inkscape:collect="always"
         stdDeviation="2.9635954"
         id="feGaussianBlur5368" />
    </filter>
    <linearGradient
       inkscape:collect="always"
       xlink:href="#linearGradient5796"
       id="linearGradient5802"
       x1="128.93633"
       y1="989.52148"
       x2="129.19843"
       y2="965.28119"
       gradientUnits="userSpaceOnUse"
       gradientTransform="matrix(2.1186543,0,0,2.2726721,-107.28316,-1271.8235)" />
    <linearGradient
       inkscape:collect="always"
       xlink:href="#linearGradient5796"
       id="linearGradient5993"
       gradientUnits="userSpaceOnUse"
       gradientTransform="matrix(2.1186543,0,0,2.2726721,-107.28316,-1271.8235)"
       x1="128.93633"
       y1="989.52148"
       x2="129.19843"
       y2="965.28119" />
    <linearGradient
       inkscape:collect="always"
       xlink:href="#linearGradient5092"
       id="linearGradient3914"
       gradientUnits="userSpaceOnUse"
       gradientTransform="translate(-598.29937,-743.724)"
       x1="647.49353"
       y1="876.85071"
       x2="645.47327"
       y2="780.88623" />
    <linearGradient
       inkscape:collect="always"
       xlink:href="#linearGradient5092"
       id="linearGradient3917"
       gradientUnits="userSpaceOnUse"
       gradientTransform="translate(-589.19623,-545.94181)"
       x1="647.49353"
       y1="876.85071"
       x2="645.47327"
       y2="780.88623" />
    <linearGradient
       inkscape:collect="always"
       xlink:href="#linearGradient5092"
       id="linearGradient3922"
       gradientUnits="userSpaceOnUse"
       gradientTransform="translate(-587.57329,-357.89921)"
       x1="647.49353"
       y1="876.85071"
       x2="645.47327"
       y2="780.88623" />
    <linearGradient
       inkscape:collect="always"
       xlink:href="#linearGradient5092"
       id="linearGradient5013"
       gradientUnits="userSpaceOnUse"
       gradientTransform="translate(-551.71723,-170.85215)"
       x1="647.49353"
       y1="876.85071"
       x2="645.47327"
       y2="780.88623" />
    <filter
       inkscape:collect="always"
       id="filter5990">
      <feGaussianBlur
         inkscape:collect="always"
         stdDeviation="2.7544584"
         id="feGaussianBlur5992" />
    </filter>
    <linearGradient
       inkscape:collect="always"
       xlink:href="#linearGradient5092"
       id="linearGradient6965"
       gradientUnits="userSpaceOnUse"
       gradientTransform="translate(-549.64498,29.191437)"
       x1="647.49353"
       y1="876.85071"
       x2="645.47327"
       y2="780.88623" />
    <filter
       inkscape:collect="always"
       id="filter7936">
      <feGaussianBlur
         inkscape:collect="always"
         stdDeviation="1.9478642"
         id="feGaussianBlur7938" />
    </filter>
    <linearGradient
       inkscape:collect="always"
       xlink:href="#linearGradient5092"
       id="linearGradient7946"
       gradientUnits="userSpaceOnUse"
       gradientTransform="translate(-548.22257,196.98804)"
       x1="647.49353"
       y1="876.85071"
       x2="645.47327"
       y2="780.88623" />
    <radialGradient
       inkscape:collect="always"
       xlink:href="#linearGradient4192"
       id="radialGradient8046"
       cx="144.28572"
       cy="1033.4336"
       fx="144.28572"
       fy="1033.4336"
       r="102.14285"
       gradientTransform="matrix(1,0,0,0.4160839,0,603.43848)"
       gradientUnits="userSpaceOnUse" />
    <linearGradient
       inkscape:collect="always"
       xlink:href="#linearGradient5092"
       id="linearGradient8068"
       gradientUnits="userSpaceOnUse"
       gradientTransform="translate(-548.22257,196.98804)"
       x1="647.49353"
       y1="876.85071"
       x2="645.47327"
       y2="780.88623" />
    <linearGradient
       inkscape:collect="always"
       xlink:href="#linearGradient5092"
       id="linearGradient8071"
       gradientUnits="userSpaceOnUse"
       gradientTransform="translate(-548.22257,196.98804)"
       x1="647.49353"
       y1="876.85071"
       x2="645.47327"
       y2="780.88623" />
    <linearGradient
       inkscape:collect="always"
       xlink:href="#linearGradient5092"
       id="linearGradient8079"
       gradientUnits="userSpaceOnUse"
       gradientTransform="translate(-548.22257,196.98804)"
       x1="647.49353"
       y1="876.85071"
       x2="645.47327"
       y2="780.88623" />
    <linearGradient
       inkscape:collect="always"
       xlink:href="#linearGradient5092"
       id="linearGradient8082"
       gradientUnits="userSpaceOnUse"
       gradientTransform="translate(-548.22257,196.98804)"
       x1="647.49353"
       y1="876.85071"
       x2="645.47327"
       y2="780.88623" />
  </defs>
  <sodipodi:namedview
     id="base"
     pagecolor="#ffffff"
     bordercolor="#666666"
     borderopacity="1.0"
     inkscape:pageopacity="0.0"
     inkscape:pageshadow="2"
     inkscape:zoom="1.979899"
     inkscape:cx="184.93186"
     inkscape:cy="79.917274"
     inkscape:document-units="px"
     inkscape:current-layer="layer1"
     inkscape:window-width="1280"
     inkscape:window-height="745"
     inkscape:window-x="0"
     inkscape:window-y="25"
     showguides="true"
     inkscape:guide-bbox="true" />
  <metadata
     id="metadata7">
    <rdf:RDF>
      <cc:Work
         rdf:about="">
        <dc:format>image/svg+xml</dc:format>
        <dc:type
           rdf:resource="http://purl.org/dc/dcmitype/StillImage" />
      </cc:Work>
    </rdf:RDF>
  </metadata>
  <g
     inkscape:label="Camada 1"
     inkscape:groupmode="layer"
     id="layer1">
    <path
       style="font-size:144px;font-style:italic;font-variant:normal;font-weight:bold;font-stretch:normal;text-align:start;line-height:100%;writing-mode:lr-tb;text-anchor:start;opacity:0.47441861;fill:#040404;fill-opacity:1;stroke:none;stroke-width:1px;stroke-linecap:butt;stroke-linejoin:miter;stroke-opacity:1;filter:url(#filter5366);font-family:URW Chancery L"
       d="M 25.749623,280.31299 L 19.413623,295.28899 C 24.453618,302.05698 31.221633,305.22499 40.581623,305.22499 C 62.613601,305.22499 84.213623,287.22497 84.213623,268.93699 C 84.213623,263.03299 81.909613,260.00898 71.253623,251.65699 C 60.741634,243.449 59.013623,241.00098 59.013623,234.80899 C 59.013623,225.449 66.069632,217.38499 74.565623,217.38499 C 80.613617,217.38499 82.773625,219.977 84.357623,229.19299 L 93.861623,222.42499 C 92.997623,214.505 88.677613,210.61699 81.045623,210.61699 C 66.213638,210.61699 49.365623,227.033 49.365623,241.28899 C 49.365623,247.76898 52.389632,252.52099 60.741623,259.00099 C 70.533614,266.77698 73.125623,270.665 73.125623,277.28899 C 73.125623,288.52098 62.325611,298.45699 49.797623,298.45699 C 43.60563,298.45699 37.26962,295.72098 33.381623,291.40099 C 30.357626,288.08899 29.205622,285.06498 28.053623,278.72899 L 25.749623,280.31299 M 98.316623,296.58499 C 99.900623,296.00899 101.34062,295.43299 101.77262,295.28899 C 102.63662,295.00099 104.07662,294.56899 105.66062,293.99299 C 106.09262,293.84899 107.38862,293.41699 108.82862,292.98499 L 114.44462,267.35299 L 117.75662,265.33699 C 120.63662,271.96098 121.21263,273.113 125.82062,284.05699 C 132.01261,298.74497 135.75663,304.64899 141.66062,309.25699 C 147.85261,314.00898 156.78063,317.03299 164.41262,317.03299 C 171.03661,317.03299 175.78862,315.59298 180.10862,311.99299 L 177.22862,301.62499 C 172.62063,309.40098 168.44461,312.42499 162.39662,312.42499 C 156.20463,312.42499 150.01262,307.52898 145.11662,298.74499 C 142.23662,293.27299 142.2366,293.27295 125.82062,258.56899 L 135.46862,249.78499 C 141.08461,244.74499 142.81262,243.73699 145.54862,243.73699 C 147.99662,243.73699 149.72462,244.88899 152.02862,247.91299 L 159.37262,236.96899 C 156.63662,234.80899 154.47662,234.08899 151.30862,234.08899 C 147.56462,234.08899 144.97262,235.38499 140.65262,239.41699 C 136.04463,243.73698 135.90062,244.02499 134.46062,245.32099 L 115.88462,261.88099 L 121.35662,239.84899 C 125.96462,220.84101 127.54862,216.23298 129.99662,212.20099 C 132.58862,208.02499 136.33263,206.00899 141.22862,206.00899 C 142.66862,206.00899 143.67662,206.15299 146.26862,206.58499 L 152.02862,198.23299 C 150.15662,197.94499 149.14862,197.80099 147.85262,197.80099 C 142.66863,197.80099 139.21262,198.95299 134.74862,202.26499 C 125.53263,208.74498 119.05262,215.08099 117.18062,219.25699 C 115.74062,222.42499 113.00462,231.929 111.13262,240.28099 L 98.316623,296.58499 M 203.78987,275.27299 C 192.98988,284.63298 186.07786,288.66499 180.60587,288.66499 C 177.00587,288.66499 173.98187,286.21698 172.97387,282.47299 C 172.39787,280.16899 172.25387,278.58498 172.25387,274.40899 C 178.73386,270.37699 183.05388,267.35298 191.54987,261.01699 C 199.32586,255.11299 202.34987,250.36098 202.34987,243.88099 C 202.34987,238.84099 199.18187,235.81699 194.14187,235.81699 C 190.97387,235.81699 188.66987,236.53699 185.35787,238.40899 C 179.88588,241.57699 174.98987,245.46499 171.96587,248.92099 C 166.49388,255.54498 161.59787,271.385 161.59787,283.04899 C 161.59787,291.54498 166.06188,296.87299 173.40587,296.87299 C 181.90186,296.87299 192.41388,290.82498 203.78987,279.44899 L 203.78987,275.27299 M 172.68587,269.22499 C 175.13387,253.817 181.75788,241.86499 187.94987,241.86499 C 190.39787,241.86499 191.98187,244.31299 191.98187,247.76899 C 191.98187,254.96898 188.09385,259.289 172.68587,269.22499 M 269.57537,276.13699 C 267.70337,277.28899 266.26337,278.29699 265.54337,278.72899 C 257.62338,284.20098 253.59137,286.50499 252.29537,286.50499 C 251.14337,286.50499 250.27937,284.92099 250.27937,282.76099 C 250.27937,278.00899 262.37537,225.88098 265.39937,216.95299 C 268.56737,208.313 271.73538,205.00099 276.91937,205.00099 C 278.79137,205.00099 280.23137,205.28899 283.54337,206.15299 L 288.58337,198.08899 C 286.42337,197.65699 285.27137,197.51299 283.97537,197.51299 C 280.51937,197.51299 278.64737,198.08899 275.33537,199.96099 C 271.73537,201.97699 266.83937,205.72099 262.80737,209.46499 C 255.75138,216.23298 255.31937,217.241 251.57537,232.07299 C 251.43137,232.64899 250.99937,234.52099 250.42337,236.68099 C 247.83137,236.10499 245.67137,235.81699 244.51937,235.81699 C 240.05537,235.81699 227.67136,243.59299 221.91137,249.92899 C 217.01538,255.54498 210.53537,275.849 210.53537,285.78499 C 210.53537,291.25698 213.41537,296.87299 216.00737,296.87299 C 218.74337,296.87299 225.07939,292.98498 240.19937,282.04099 C 239.47937,285.64098 239.04737,289.81699 239.04737,292.40899 C 239.04737,295.28899 240.19937,296.87299 242.21537,296.87299 C 244.51937,296.87299 257.04738,289.24098 268.99937,280.60099 L 269.57537,276.13699 M 241.35137,276.71299 C 229.11138,285.35298 225.94337,287.22499 223.92737,287.22499 C 221.91137,287.22499 220.90337,285.06498 220.90337,280.88899 C 220.90337,276.13699 221.76737,270.66498 223.49537,264.32899 C 227.67137,249.785 233.28738,242.58499 240.63137,242.58499 C 243.22337,242.58499 245.09537,243.59299 248.11937,246.47299 L 241.35137,276.71299"
       id="text5228" />
    <path
       style="font-size:144px;font-style:italic;font-variant:normal;font-weight:bold;font-stretch:normal;text-align:start;line-height:100%;writing-mode:lr-tb;text-anchor:start;fill:url(#linearGradient3917);fill-opacity:1;stroke:#000000;stroke-width:0.35433072;stroke-linecap:butt;stroke-linejoin:miter;stroke-miterlimit:4;stroke-opacity:1;font-family:URW Chancery L"
       d="M 25.548106,277.77291 L 19.212106,292.74891 C 24.252101,299.5169 31.020116,302.68491 40.380106,302.68491 C 62.412084,302.68491 84.012103,284.68489 84.012103,266.39691 C 84.012103,260.49292 81.708096,257.4689 71.052106,249.11691 C 60.540117,240.90892 58.812106,238.46091 58.812106,232.26891 C 58.812106,222.90892 65.868115,214.84491 74.364106,214.84491 C 80.4121,214.84491 82.572108,217.43692 84.156103,226.65291 L 93.660103,219.88491 C 92.796103,211.96492 88.476093,208.07691 80.844106,208.07691 C 66.012121,208.07691 49.164106,224.49293 49.164106,238.74891 C 49.164106,245.22891 52.188115,249.98092 60.540106,256.46091 C 70.332097,264.2369 72.924106,268.12492 72.924106,274.74891 C 72.924106,285.9809 62.124094,295.91691 49.596106,295.91691 C 43.404113,295.91691 37.068103,293.18091 33.180106,288.86091 C 30.156109,285.54891 29.004105,282.52491 27.852106,276.18891 L 25.548106,277.77291 M 98.115103,294.04491 C 99.699103,293.46891 101.1391,292.89291 101.5711,292.74891 C 102.4351,292.46091 103.8751,292.02891 105.4591,291.45291 C 105.8911,291.30891 107.1871,290.87691 108.6271,290.44491 L 114.2431,264.81291 L 117.5551,262.79691 C 120.4351,269.4209 121.0111,270.57292 125.6191,281.51691 C 131.81109,296.2049 135.5551,302.10892 141.4591,306.71691 C 147.65109,311.46891 156.57911,314.49291 164.2111,314.49291 C 170.83509,314.49291 175.5871,313.05291 179.9071,309.45291 L 177.0271,299.08491 C 172.4191,306.8609 168.24309,309.88491 162.1951,309.88491 C 156.0031,309.88491 149.81109,304.9889 144.9151,296.20491 C 142.0351,290.73292 142.03508,290.73288 125.6191,256.02891 L 135.2671,247.24491 C 140.88309,242.20492 142.6111,241.19691 145.3471,241.19691 C 147.7951,241.19691 149.5231,242.34891 151.8271,245.37291 L 159.1711,234.42891 C 156.4351,232.26891 154.2751,231.54891 151.1071,231.54891 C 147.3631,231.54891 144.77109,232.84492 140.4511,236.87691 C 135.8431,241.19691 135.6991,241.48491 134.2591,242.78091 L 115.6831,259.34091 L 121.1551,237.30891 C 125.76309,218.30093 127.3471,213.69291 129.7951,209.66091 C 132.3871,205.48492 136.1311,203.46891 141.0271,203.46891 C 142.4671,203.46891 143.4751,203.61291 146.0671,204.04491 L 151.8271,195.69291 C 149.9551,195.40491 148.9471,195.26091 147.6511,195.26091 C 142.4671,195.26091 139.01109,196.41291 134.5471,199.72491 C 125.33111,206.20491 118.8511,212.54092 116.9791,216.71691 C 115.5391,219.88491 112.8031,229.38892 110.9311,237.74091 L 98.115103,294.04491 M 203.58835,272.73291 C 192.78836,282.0929 185.87634,286.12491 180.40435,286.12491 C 176.80435,286.12491 173.78035,283.67691 172.77235,279.93291 C 172.19635,277.62891 172.05235,276.04491 172.05235,271.86891 C 178.53234,267.83692 182.85236,264.81291 191.34835,258.47691 C 199.12434,252.57292 202.14835,247.82091 202.14835,241.34091 C 202.14835,236.30092 198.98034,233.27691 193.94035,233.27691 C 190.77235,233.27691 188.46835,233.99691 185.15635,235.86891 C 179.68435,239.03691 174.78835,242.92492 171.76435,246.38091 C 166.29235,253.0049 161.39635,268.84492 161.39635,280.50891 C 161.39635,289.0049 165.86036,294.33291 173.20435,294.33291 C 181.70034,294.33291 192.21236,288.2849 203.58835,276.90891 L 203.58835,272.73291 M 172.48435,266.68491 C 174.93235,251.27693 181.55635,239.32491 187.74835,239.32491 C 190.19635,239.32491 191.78035,241.77292 191.78035,245.22891 C 191.78035,252.4289 187.89233,256.74892 172.48435,266.68491 M 269.37385,273.59691 C 267.50185,274.74891 266.06185,275.75691 265.34185,276.18891 C 257.42186,281.66091 253.38985,283.96491 252.09385,283.96491 C 250.94185,283.96491 250.07785,282.38091 250.07785,280.22091 C 250.07785,275.46892 262.17385,223.3409 265.19785,214.41291 C 268.36585,205.77292 271.53385,202.46091 276.71785,202.46091 C 278.58985,202.46091 280.02985,202.74891 283.34185,203.61291 L 288.38185,195.54891 C 286.22185,195.11691 285.06985,194.97291 283.77385,194.97291 C 280.31785,194.97291 278.44585,195.54891 275.13385,197.42091 C 271.53385,199.43691 266.63784,203.18092 262.60585,206.92491 C 255.54986,213.6929 255.11784,214.70093 251.37385,229.53291 C 251.22985,230.10891 250.79785,231.98091 250.22185,234.14091 C 247.62985,233.56491 245.46985,233.27691 244.31785,233.27691 C 239.85385,233.27691 227.46984,241.05292 221.70985,247.38891 C 216.81385,253.00491 210.33385,273.30892 210.33385,283.24491 C 210.33385,288.71691 213.21385,294.33291 215.80585,294.33291 C 218.54185,294.33291 224.87786,290.4449 239.99785,279.50091 C 239.27785,283.10091 238.84585,287.27691 238.84585,289.86891 C 238.84585,292.74891 239.99785,294.33291 242.01385,294.33291 C 244.31785,294.33291 256.84586,286.7009 268.79785,278.06091 L 269.37385,273.59691 M 241.14985,274.17291 C 228.90986,282.8129 225.74185,284.68491 223.72585,284.68491 C 221.70985,284.68491 220.70185,282.52491 220.70185,278.34891 C 220.70185,273.59692 221.56585,268.12491 223.29385,261.78891 C 227.46984,247.24493 233.08586,240.04491 240.42985,240.04491 C 243.02185,240.04491 244.89385,241.05291 247.91785,243.93291 L 241.14985,274.17291"
       id="text5222" />
    <text
       xml:space="preserve"
       style="font-size:144px;font-style:italic;font-variant:normal;font-weight:bold;font-stretch:normal;text-align:start;line-height:100%;writing-mode:lr-tb;text-anchor:start;opacity:0.47441861;fill:#040404;fill-opacity:1;stroke:none;stroke-width:1px;stroke-linecap:butt;stroke-linejoin:miter;stroke-opacity:1;filter:url(#filter5366);font-family:URW Chancery L"
       x="13.524749"
       y="97.575943"
       id="text3906"
       sodipodi:linespacing="100%"><tspan
         sodipodi:role="line"
         id="tspan3908"
         x="13.524749"
         y="97.575943"
         style="fill:#040404;fill-opacity:1">Sked</tspan></text>
    <text
       xml:space="preserve"
       style="font-size:144px;font-style:italic;font-variant:normal;font-weight:bold;font-stretch:normal;text-align:start;line-height:100%;writing-mode:lr-tb;text-anchor:start;fill:url(#linearGradient3914);fill-opacity:1;stroke:#000000;stroke-width:0.35433072;stroke-linecap:butt;stroke-linejoin:miter;stroke-miterlimit:4;stroke-dasharray:none;stroke-opacity:1;font-family:URW Chancery L"
       x="10.108947"
       y="94.678726"
       id="text3910"
       sodipodi:linespacing="100%"><tspan
         sodipodi:role="line"
         id="tspan3912"
         x="10.108947"
         y="94.678726"
         style="fill:url(#linearGradient3914);fill-opacity:1;stroke:#000000;stroke-width:0.35433072;stroke-miterlimit:4;stroke-dasharray:none;stroke-opacity:1">Sked</tspan></text>
    <path
       style="font-size:144px;font-style:italic;font-variant:normal;font-weight:bold;font-stretch:normal;text-align:start;line-height:100%;writing-mode:lr-tb;text-anchor:start;opacity:0.16591929;fill:#000000;fill-opacity:1;stroke:none;stroke-width:0.35433072;stroke-linecap:butt;stroke-linejoin:miter;stroke-miterlimit:4;stroke-opacity:1;filter:url(#filter5990);font-family:URW Chancery L"
       d="M 34.987078,452.85886 L 28.651078,467.83486 C 33.691073,474.60285 40.459088,477.77086 49.819078,477.77086 C 71.851056,477.77086 93.451063,459.77084 93.451063,441.48286 C 93.451063,435.57887 91.147053,432.55485 80.491071,424.20286 C 69.979089,415.99487 68.251078,413.54686 68.251078,407.35486 C 68.251078,397.99487 75.307087,389.93086 83.803067,389.93086 C 89.851063,389.93086 92.011073,392.52287 93.595063,401.73886 L 103.09907,394.97086 C 102.23507,387.05087 97.915053,383.16286 90.283063,383.16286 C 75.451093,383.16286 58.603078,399.57888 58.603078,413.83486 C 58.603078,420.31486 61.627087,425.06687 69.979078,431.54686 C 79.771071,439.32285 88.077353,443.92516 88.077353,450.54915 C 88.077353,461.78114 71.563066,471.00286 59.035078,471.00286 C 52.843085,471.00286 46.507075,468.26686 42.619078,463.94686 C 39.595081,460.63486 38.443077,457.61086 37.291078,451.27486 L 34.987078,452.85886 M 96.482643,479.48801 C 98.066643,478.91201 99.506643,478.33601 99.938643,478.19201 C 100.80265,477.90401 102.24265,477.47201 103.82665,476.89601 C 104.25865,476.75201 105.55465,476.32001 106.99465,475.88801 L 112.61065,450.25601 L 115.92265,448.24001 C 118.80265,454.864 119.37865,456.01602 123.98665,466.96001 C 130.17864,481.648 133.92265,487.55202 139.82665,492.15996 C 146.01864,496.91196 154.94666,499.93596 162.57865,499.93596 C 169.20264,499.93596 173.95465,498.49596 178.27465,494.89596 L 175.39465,484.52801 C 170.78665,492.30396 166.61064,495.32796 160.56265,495.32796 C 154.37065,495.32796 148.17864,490.43198 143.28265,481.64801 C 140.40265,476.17602 140.40263,476.17598 123.98665,441.47201 L 133.63465,432.68801 C 139.25064,427.64802 140.97865,426.64001 143.71465,426.64001 C 146.16265,426.64001 147.89065,427.79201 150.19465,430.81601 L 157.53865,419.87201 C 154.80265,417.71201 152.64265,416.99201 149.47465,416.99201 C 145.73065,416.99201 143.13864,418.28802 138.81865,422.32001 C 134.21065,426.64001 134.06665,426.92801 132.62665,428.22401 L 114.05065,444.78401 L 119.52265,422.75201 C 124.13064,403.74403 125.71465,399.13601 128.16265,395.10401 C 130.75465,390.92802 134.49865,388.91201 139.39465,388.91201 C 140.83465,388.91201 141.84265,389.05601 144.43465,389.48801 L 150.19465,381.13601 C 148.32265,380.84801 147.31465,380.70401 146.01865,380.70401 C 140.83465,380.70401 137.37864,381.85601 132.91465,385.16801 C 123.69866,391.64801 117.21865,397.98402 115.34665,402.16001 C 113.90665,405.32801 111.17065,414.83202 109.29865,423.18401 L 96.482643,479.48801 M 193.02733,456.3903 C 182.22734,465.75029 175.31532,469.7823 169.84333,469.7823 C 166.24333,469.7823 163.21933,467.3343 162.21133,463.5903 C 161.63533,461.2863 161.49133,459.7023 161.49133,455.5263 C 167.97132,451.49431 172.29134,448.4703 180.78733,442.1343 C 188.56332,436.23031 191.58733,431.4783 191.58733,424.9983 C 191.58733,419.95831 188.41932,416.9343 183.37933,416.9343 C 180.21133,416.9343 177.90733,417.6543 174.59533,419.5263 C 169.12333,422.6943 164.22733,426.58231 161.20333,430.0383 C 155.73133,436.66229 150.83533,452.50231 150.83533,464.1663 C 150.83533,472.66229 155.29934,477.9903 162.64333,477.9903 C 171.13932,477.9903 181.65134,471.94229 193.02733,460.5663 L 193.02733,456.3903 M 161.92333,450.3423 C 164.37133,434.93432 170.99533,422.9823 177.18733,422.9823 C 179.63533,422.9823 181.21933,425.43031 181.21933,428.8863 C 181.21933,436.08629 177.33131,440.40631 161.92333,450.3423 M 255.95568,457.61144 C 254.08368,458.76344 252.64368,459.77144 251.92368,460.20344 C 244.00369,465.67544 239.97168,467.97944 238.67568,467.97944 C 237.52368,467.97944 236.65968,466.39544 236.65968,464.23544 C 236.65968,459.48345 248.75568,407.35543 251.77968,398.42744 C 254.94768,389.78745 258.11568,386.47544 263.29968,386.47544 C 265.17168,386.47544 266.61168,386.76344 269.92368,387.62744 L 274.96368,379.56344 C 272.80368,379.13144 271.65168,378.98744 270.35568,378.98744 C 266.89968,378.98744 265.02768,379.56344 261.71568,381.43544 C 258.11568,383.45144 253.21967,387.19545 249.18768,390.93944 C 242.13169,397.70743 241.69967,398.71546 237.95568,413.54744 C 237.81168,414.12344 237.37968,415.99544 236.80368,418.15544 C 234.21168,417.57944 232.05168,417.29144 230.89968,417.29144 C 226.43568,417.29144 214.05167,425.06745 208.29168,431.40344 C 203.39568,437.01944 196.91568,457.32345 196.91568,467.25944 C 196.91568,472.73144 199.79568,478.34744 202.38768,478.34744 C 205.12368,478.34744 211.45969,474.45943 226.57968,463.51544 C 225.85968,467.11544 225.42768,471.29144 225.42768,473.88344 C 225.42768,476.76344 226.57968,478.34744 228.59568,478.34744 C 230.89968,478.34744 243.42769,470.71543 255.37968,462.07544 L 255.95568,457.61144 M 227.73168,458.18744 C 215.49169,466.82743 212.32368,468.69944 210.30768,468.69944 C 208.29168,468.69944 207.28368,466.53944 207.28368,462.36344 C 207.28368,457.61145 208.14768,452.13944 209.87568,445.80344 C 214.05167,431.25946 219.66769,424.05944 227.01168,424.05944 C 229.60368,424.05944 231.47568,425.06744 234.49968,427.94744 L 227.73168,458.18744"
       id="path3926"
       sodipodi:nodetypes="ccsscssccsscssccccsccccccsccscccsccscccccsccscccccscccssccsscccsscccsscsccsccccscsscsscccsscscc" />
    <path
       style="font-size:144px;font-style:italic;font-variant:normal;font-weight:bold;font-stretch:normal;text-align:start;line-height:100%;writing-mode:lr-tb;text-anchor:start;fill:url(#linearGradient3922);fill-opacity:1;stroke:#000000;stroke-width:0.35433072;stroke-linecap:butt;stroke-linejoin:miter;stroke-miterlimit:4;stroke-opacity:1;font-family:URW Chancery L"
       d="M 38.242467,455.45836 L 31.906467,470.43436 C 36.946462,477.20235 43.714477,480.37036 53.074467,480.37036 C 75.106445,480.37036 96.706456,462.37034 96.706456,444.08236 C 96.706456,438.17837 94.402446,435.15435 83.74646,426.80236 C 73.234478,418.59437 71.506467,416.14636 71.506467,409.95436 C 71.506467,400.59437 78.562476,392.53036 87.058456,392.53036 C 93.106456,392.53036 95.266466,395.12237 96.850456,404.33836 L 106.35446,397.57036 C 105.49046,389.65037 101.17045,385.76236 93.538456,385.76236 C 78.706482,385.76236 61.858467,402.17838 61.858467,416.43436 C 61.858467,422.91436 64.882476,427.66637 73.234467,434.14636 C 83.02646,441.92235 91.332746,446.52466 91.332746,453.14865 C 91.332746,464.38064 74.818455,473.60236 62.290467,473.60236 C 56.098474,473.60236 49.762464,470.86636 45.874467,466.54636 C 42.85047,463.23436 41.698466,460.21036 40.546467,453.87436 L 38.242467,455.45836 M 99.738036,482.08751 C 101.32204,481.51151 102.76204,480.93551 103.19404,480.79151 C 104.05804,480.50351 105.49804,480.07151 107.08204,479.49551 C 107.51404,479.35151 108.81004,478.91951 110.25004,478.48751 L 115.86604,452.85551 L 119.17804,450.83951 C 122.05804,457.4635 122.63404,458.61552 127.24204,469.55951 C 133.43403,484.2475 137.17804,490.15152 143.08204,494.75948 C 149.27403,499.51148 158.20205,502.53548 165.83404,502.53548 C 172.45803,502.53548 177.21004,501.09548 181.53004,497.49548 L 178.65004,487.12751 C 174.04204,494.90348 169.86603,497.92748 163.81804,497.92748 C 157.62604,497.92748 151.43403,493.03148 146.53804,484.24751 C 143.65804,478.77552 143.65802,478.77548 127.24204,444.07151 L 136.89004,435.28751 C 142.50603,430.24752 144.23404,429.23951 146.97004,429.23951 C 149.41804,429.23951 151.14604,430.39151 153.45004,433.41551 L 160.79404,422.47151 C 158.05804,420.31151 155.89804,419.59151 152.73004,419.59151 C 148.98604,419.59151 146.39403,420.88752 142.07404,424.91951 C 137.46604,429.23951 137.32204,429.52751 135.88204,430.82351 L 117.30604,447.38351 L 122.77804,425.35151 C 127.38603,406.34353 128.97004,401.73551 131.41804,397.70351 C 134.01004,393.52752 137.75404,391.51151 142.65004,391.51151 C 144.09004,391.51151 145.09804,391.65551 147.69004,392.08751 L 153.45004,383.73551 C 151.57804,383.44751 150.57004,383.30351 149.27404,383.30351 C 144.09004,383.30351 140.63403,384.45551 136.17004,387.76751 C 126.95405,394.24751 120.47404,400.58352 118.60204,404.75951 C 117.16204,407.92751 114.42604,417.43152 112.55404,425.78351 L 99.738036,482.08751 M 196.28272,458.9898 C 185.48273,468.34979 178.57071,472.3818 173.09872,472.3818 C 169.49872,472.3818 166.47472,469.9338 165.46672,466.1898 C 164.89072,463.8858 164.74672,462.3018 164.74672,458.1258 C 171.22671,454.09381 175.54673,451.0698 184.04272,444.7338 C 191.81871,438.82981 194.84272,434.0778 194.84272,427.5978 C 194.84272,422.55781 191.67471,419.5338 186.63472,419.5338 C 183.46672,419.5338 181.16272,420.2538 177.85072,422.1258 C 172.37872,425.2938 167.48272,429.18181 164.45872,432.6378 C 158.98672,439.26179 154.09072,455.10181 154.09072,466.7658 C 154.09072,475.26179 158.55473,480.5898 165.89872,480.5898 C 174.39471,480.5898 184.90673,474.54179 196.28272,463.1658 L 196.28272,458.9898 M 165.17872,452.9418 C 167.62672,437.53382 174.25072,425.5818 180.44272,425.5818 C 182.89072,425.5818 184.47472,428.02981 184.47472,431.4858 C 184.47472,438.68579 180.5867,443.00581 165.17872,452.9418 M 259.21107,460.21094 C 257.33907,461.36294 255.89907,462.37094 255.17907,462.80294 C 247.25908,468.27494 243.22707,470.57894 241.93107,470.57894 C 240.77907,470.57894 239.91507,468.99494 239.91507,466.83494 C 239.91507,462.08295 252.01107,409.95493 255.03507,401.02694 C 258.20307,392.38695 261.37107,389.07494 266.55507,389.07494 C 268.42707,389.07494 269.86707,389.36294 273.17907,390.22694 L 278.21907,382.16294 C 276.05907,381.73094 274.90707,381.58694 273.61107,381.58694 C 270.15507,381.58694 268.28307,382.16294 264.97107,384.03494 C 261.37107,386.05094 256.47506,389.79495 252.44307,393.53894 C 245.38708,400.30693 244.95506,401.31496 241.21107,416.14694 C 241.06707,416.72294 240.63507,418.59494 240.05907,420.75494 C 237.46707,420.17894 235.30707,419.89094 234.15507,419.89094 C 229.69107,419.89094 217.30706,427.66695 211.54707,434.00294 C 206.65107,439.61894 200.17107,459.92295 200.17107,469.85894 C 200.17107,475.33094 203.05107,480.94694 205.64307,480.94694 C 208.37907,480.94694 214.71508,477.05893 229.83507,466.11494 C 229.11507,469.71494 228.68307,473.89094 228.68307,476.48294 C 228.68307,479.36294 229.83507,480.94694 231.85107,480.94694 C 234.15507,480.94694 246.68308,473.31493 258.63507,464.67494 L 259.21107,460.21094 M 230.98707,460.78694 C 218.74708,469.42693 215.57907,471.29894 213.56307,471.29894 C 211.54707,471.29894 210.53907,469.13894 210.53907,464.96294 C 210.53907,460.21095 211.40307,454.73894 213.13107,448.40294 C 217.30706,433.85896 222.92308,426.65894 230.26707,426.65894 C 232.85907,426.65894 234.73107,427.66694 237.75507,430.54694 L 230.98707,460.78694"
       id="path3920"
       sodipodi:nodetypes="ccsscssccsscssccccsccccccsccscccsccscccccsccscccccscccssccsscccsscccsscsccsccccscsscsscccsscscc" />
    <rect
       style="opacity:0.50672643;fill:#000000;fill-opacity:0.31363639;fill-rule:nonzero;stroke:none;stroke-width:0.35433072;stroke-linecap:round;stroke-linejoin:round;stroke-miterlimit:4;stroke-dasharray:none;stroke-dashoffset:0;stroke-opacity:1"
       id="rect5009"
       width="150"
       height="150"
       x="65.159935"
       y="552.8443" />
    <path
       style="font-size:144px;font-style:italic;font-variant:normal;font-weight:bold;font-stretch:normal;text-align:start;line-height:100%;writing-mode:lr-tb;text-anchor:start;fill:url(#linearGradient5013);fill-opacity:1;stroke:#000000;stroke-width:0.35433072;stroke-linecap:butt;stroke-linejoin:miter;stroke-miterlimit:4;stroke-opacity:1;font-family:URW Chancery L"
       d="M 74.098531,642.50538 L 67.762531,657.48138 C 72.802526,664.24938 79.570541,667.41738 88.930531,667.41738 C 110.96251,667.41738 132.56252,649.41738 132.56252,631.12938 C 132.56252,625.22538 130.25851,622.20138 119.60252,613.84938 C 109.09054,605.64138 107.36253,603.19338 107.36253,597.00138 C 107.36253,587.64138 114.41854,579.57738 122.91452,579.57738 C 128.96252,579.57738 131.12253,582.16938 132.70652,591.38538 L 142.21052,584.61738 C 141.34652,576.69738 137.02651,572.80938 129.39452,572.80938 C 114.56255,572.80938 97.714531,589.22548 97.714531,603.48138 C 97.714531,609.96138 100.73854,614.71338 109.09053,621.19338 C 118.88252,628.96938 127.18881,633.57168 127.18881,640.19568 C 127.18881,651.42768 110.67452,660.64938 98.146531,660.64938 C 91.954538,660.64938 85.618528,657.91338 81.730531,653.59338 C 78.706534,650.28138 77.55453,647.25738 76.402531,640.92138 L 74.098531,642.50538 M 128.52303,668.62948 C 130.10703,668.05348 131.54703,667.47748 131.97903,667.33348 C 132.84303,667.04548 134.28303,666.61348 135.86703,666.03748 C 136.29903,665.89348 137.59503,665.46148 139.03503,665.02948 L 144.65103,639.39748 L 147.96303,637.38148 C 150.84303,644.00548 151.41903,645.15748 156.02703,656.10148 C 162.21902,670.78948 165.96303,676.69348 171.86703,681.30148 C 178.05902,686.05348 186.98704,689.07748 194.61903,689.07748 C 201.24302,689.07748 205.99503,687.63748 210.31503,684.03748 L 207.43503,673.66948 C 202.82703,681.44548 198.65102,684.46948 192.60303,684.46948 C 186.41103,684.46948 180.21902,679.57348 175.32303,670.78948 C 172.44303,665.31748 172.44301,665.31748 156.02703,630.61348 L 165.67503,621.82948 C 171.29102,616.78948 173.01903,615.78148 175.75503,615.78148 C 178.20303,615.78148 179.93103,616.93348 182.23503,619.95748 L 189.57903,609.01348 C 186.84303,606.85348 184.68303,606.13348 181.51503,606.13348 C 177.77103,606.13348 175.17902,607.42948 170.85903,611.46148 C 166.25103,615.78148 166.10703,616.06948 164.66703,617.36548 L 146.09103,633.92548 L 151.56303,611.89348 C 156.17102,592.88548 157.75503,588.27748 160.20303,584.24548 C 162.79503,580.06948 166.53903,578.05348 171.43503,578.05348 C 172.87503,578.05348 173.88303,578.19748 176.47503,578.62948 L 182.23503,570.27748 C 180.36303,569.98948 179.35503,569.84548 178.05903,569.84548 C 172.87503,569.84548 169.41902,570.99748 164.95503,574.30948 C 155.73904,580.78948 149.25903,587.12548 147.38703,591.30148 C 145.94703,594.46948 143.21103,603.97348 141.33903,612.32548 L 128.52303,668.62948"
       id="path5011"
       sodipodi:nodetypes="ccsscssccsscssccccsccccccsccscccsccscccccsccscccc" />
    <rect
       style="opacity:0.50672643;fill:none;fill-opacity:0.31363639;fill-rule:nonzero;stroke:#000000;stroke-width:0.35433072;stroke-linecap:round;stroke-linejoin:round;stroke-miterlimit:4;stroke-dasharray:none;stroke-dashoffset:0;stroke-opacity:1"
       id="rect5015"
       width="150"
       height="150"
       x="66.434731"
       y="746.70844" />
    <path
       style="font-size:144px;font-style:italic;font-variant:normal;font-weight:bold;font-stretch:normal;text-align:start;line-height:100%;writing-mode:lr-tb;text-anchor:start;opacity:0.3;fill:#000000;fill-opacity:1;stroke:#000000;stroke-width:0.35433072;stroke-linecap:butt;stroke-linejoin:miter;stroke-miterlimit:4;stroke-opacity:1;filter:url(#filter7936);font-family:URW Chancery L"
       d="M 78.865521,838.2165 L 72.529531,853.1925 C 77.569521,859.9605 84.337531,863.1285 93.697521,863.1285 C 115.7295,863.1285 137.32951,845.1285 137.32951,826.8405 C 137.32951,820.9365 135.0255,817.9125 124.36952,809.5605 C 113.85753,801.3525 112.12952,798.9045 112.12952,792.7125 C 112.12952,783.3525 119.18553,775.2885 127.68151,775.2885 C 133.72951,775.2885 135.88952,777.8805 137.47351,787.0965 L 146.97751,780.3285 C 146.11351,772.4085 141.7935,768.5205 134.16151,768.5205 C 119.32954,768.5205 102.48152,784.9366 102.48152,799.1925 C 102.48152,805.6725 105.50553,810.4245 113.85752,816.9045 C 123.64952,824.6805 131.9558,829.2828 131.9558,835.9068 C 131.9558,847.1388 115.44151,856.3605 102.91352,856.3605 C 96.721531,856.3605 90.385521,853.6245 86.497521,849.3045 C 83.473531,845.9925 82.321521,842.9685 81.169521,836.6325 L 78.865521,838.2165 M 130.5121,865.35075 C 132.0961,864.77475 133.5361,864.19875 133.9681,864.05475 C 134.8321,863.76675 136.2721,863.33475 137.8561,862.75875 C 138.2881,862.61475 139.5841,862.18275 141.0241,861.75075 L 146.6401,836.11875 L 149.9521,834.10275 C 152.8321,840.72675 153.4081,841.87875 158.0161,852.82275 C 164.20809,867.51075 167.9521,873.41475 173.8561,878.02275 C 180.04809,882.77475 188.97611,885.79875 196.6081,885.79875 C 203.23209,885.79875 207.9841,884.35875 212.3041,880.75875 L 209.4241,870.39075 C 204.8161,878.16675 200.64009,881.19075 194.5921,881.19075 C 188.4001,881.19075 182.20809,876.29475 177.3121,867.51075 C 174.4321,862.03875 174.43208,862.03875 158.0161,827.33475 L 167.6641,818.55075 C 173.28009,813.51075 175.0081,812.50275 177.7441,812.50275 C 180.1921,812.50275 181.9201,813.65475 184.2241,816.67875 L 191.5681,805.73475 C 188.8321,803.57475 186.6721,802.85475 183.5041,802.85475 C 179.7601,802.85475 177.16809,804.15075 172.8481,808.18275 C 168.2401,812.50275 168.0961,812.79075 166.6561,814.08675 L 148.0801,830.64675 L 153.5521,808.61475 C 158.16009,789.60675 159.7441,784.99875 162.1921,780.96675 C 164.7841,776.79075 168.5281,774.77475 173.4241,774.77475 C 174.8641,774.77475 175.8721,774.91875 178.4641,775.35075 L 184.2241,766.99875 C 182.3521,766.71075 181.3441,766.56675 180.0481,766.56675 C 174.8641,766.56675 171.40809,767.71875 166.9441,771.03075 C 157.72811,777.51075 151.2481,783.84675 149.3761,788.02275 C 147.9361,791.19075 145.2001,800.69475 143.3281,809.04675 L 130.5121,865.35075"
       id="path5017"
       sodipodi:nodetypes="ccsscssccsscssccccsccccccsccscccsccscccccsccscccc" />
    <path
       style="font-size:144px;font-style:italic;font-variant:normal;font-weight:bold;font-stretch:normal;text-align:start;line-height:100%;writing-mode:lr-tb;text-anchor:start;fill:url(#linearGradient6965);fill-opacity:1;stroke:#000000;stroke-width:0.35433072;stroke-linecap:butt;stroke-linejoin:miter;stroke-miterlimit:4;stroke-opacity:1;font-family:URW Chancery L"
       d="M 78.948705,841.53879 L 72.612715,856.51479 C 77.652705,863.28279 84.420715,866.45079 93.780705,866.45079 C 115.81268,866.45079 137.41269,848.45079 137.41269,830.16279 C 137.41269,824.25879 135.10868,821.23479 124.4527,812.88279 C 113.94071,804.67479 112.2127,802.22679 112.2127,796.03479 C 112.2127,786.67479 119.26871,778.61079 127.76469,778.61079 C 133.81269,778.61079 135.9727,781.20279 137.55669,790.41879 L 147.06069,783.65079 C 146.19669,775.73079 141.87668,771.84279 134.24469,771.84279 C 119.41272,771.84279 102.5647,788.25889 102.5647,802.51479 C 102.5647,808.99479 105.58871,813.74679 113.9407,820.22679 C 123.7327,828.00279 132.03898,832.60509 132.03898,839.22909 C 132.03898,850.46109 115.52469,859.68279 102.9967,859.68279 C 96.804715,859.68279 90.468705,856.94679 86.580705,852.62679 C 83.556715,849.31479 82.404705,846.29079 81.252705,839.95479 L 78.948705,841.53879 M 130.59528,868.67304 C 132.17928,868.09704 133.61928,867.52104 134.05128,867.37704 C 134.91528,867.08904 136.35528,866.65704 137.93928,866.08104 C 138.37128,865.93704 139.66728,865.50504 141.10728,865.07304 L 146.72328,839.44104 L 150.03528,837.42504 C 152.91528,844.04904 153.49128,845.20104 158.09928,856.14504 C 164.29127,870.83304 168.03528,876.73704 173.93928,881.34504 C 180.13127,886.09704 189.05929,889.12104 196.69128,889.12104 C 203.31527,889.12104 208.06728,887.68104 212.38728,884.08104 L 209.50728,873.71304 C 204.89928,881.48904 200.72327,884.51304 194.67528,884.51304 C 188.48328,884.51304 182.29127,879.61704 177.39528,870.83304 C 174.51528,865.36104 174.51526,865.36104 158.09928,830.65704 L 167.74728,821.87304 C 173.36327,816.83304 175.09128,815.82504 177.82728,815.82504 C 180.27528,815.82504 182.00328,816.97704 184.30728,820.00104 L 191.65128,809.05704 C 188.91528,806.89704 186.75528,806.17704 183.58728,806.17704 C 179.84328,806.17704 177.25127,807.47304 172.93128,811.50504 C 168.32328,815.82504 168.17928,816.11304 166.73928,817.40904 L 148.16328,833.96904 L 153.63528,811.93704 C 158.24327,792.92904 159.82728,788.32104 162.27528,784.28904 C 164.86728,780.11304 168.61128,778.09704 173.50728,778.09704 C 174.94728,778.09704 175.95528,778.24104 178.54728,778.67304 L 184.30728,770.32104 C 182.43528,770.03304 181.42728,769.88904 180.13128,769.88904 C 174.94728,769.88904 171.49127,771.04104 167.02728,774.35304 C 157.81129,780.83304 151.33128,787.16904 149.45928,791.34504 C 148.01928,794.51304 145.28328,804.01704 143.41128,812.36904 L 130.59528,868.67304"
       id="path6963"
       sodipodi:nodetypes="ccsscssccsscssccccsccccccsccscccsccscccccsccscccc" />
    <path
       style="font-size:144px;font-style:italic;font-variant:normal;font-weight:bold;font-stretch:normal;text-align:start;line-height:100%;writing-mode:lr-tb;text-anchor:start;opacity:0.3;fill:#000000;fill-opacity:1;stroke:#000000;stroke-width:0.35433072;stroke-linecap:butt;stroke-linejoin:miter;stroke-miterlimit:4;stroke-opacity:1;filter:url(#filter7936);font-family:URW Chancery L"
       d="M 80.287934,1006.0131 L 73.951944,1020.9891 C 78.991934,1027.7571 85.759944,1030.9251 95.119934,1030.9251 C 117.15191,1030.9251 138.75192,1012.9251 138.75192,994.6371 C 138.75192,988.7331 136.44791,985.7091 125.79193,977.3571 C 115.27994,969.1491 113.55193,966.7011 113.55193,960.5091 C 113.55193,951.1491 120.60794,943.0851 129.10392,943.0851 C 135.15192,943.0851 137.31193,945.6771 138.89592,954.8931 L 148.39992,948.1251 C 147.53592,940.2051 143.21591,936.3171 135.58392,936.3171 C 120.75195,936.3171 103.90393,952.7332 103.90393,966.9891 C 103.90393,973.4691 106.92794,978.2211 115.27993,984.7011 C 125.07193,992.4771 133.37821,997.0794 133.37821,1003.7034 C 133.37821,1014.9354 116.86392,1024.1571 104.33593,1024.1571 C 98.143944,1024.1571 91.807934,1021.4211 87.919934,1017.1011 C 84.895944,1013.7891 83.743934,1010.7651 82.591934,1004.4291 L 80.287934,1006.0131 M 131.93451,1033.1474 C 133.51851,1032.5714 134.95851,1031.9954 135.39051,1031.8514 C 136.25451,1031.5634 137.69451,1031.1314 139.27851,1030.5554 C 139.71051,1030.4114 141.00651,1029.9794 142.44651,1029.5474 L 148.06251,1003.9154 L 151.37451,1001.8994 C 154.25451,1008.5234 154.83051,1009.6754 159.43851,1020.6194 C 165.6305,1035.3074 169.37451,1041.2114 175.27851,1045.8193 C 181.4705,1050.5713 190.39852,1053.5953 198.03051,1053.5953 C 204.6545,1053.5953 209.40651,1052.1553 213.72651,1048.5553 L 210.84651,1038.1874 C 206.23851,1045.9633 202.0625,1048.9873 196.01451,1048.9873 C 189.82251,1048.9873 183.6305,1044.0914 178.73451,1035.3074 C 175.85451,1029.8354 175.85449,1029.8354 159.43851,995.13135 L 169.08651,986.34735 C 174.7025,981.30735 176.43051,980.29935 179.16651,980.29935 C 181.61451,980.29935 183.34251,981.45135 185.64651,984.47535 L 192.99051,973.53135 C 190.25451,971.37135 188.09451,970.65135 184.92651,970.65135 C 181.18251,970.65135 178.5905,971.94735 174.27051,975.97935 C 169.66251,980.29935 169.51851,980.58735 168.07851,981.88335 L 149.50251,998.44335 L 154.97451,976.41135 C 159.5825,957.40335 161.16651,952.79535 163.61451,948.76335 C 166.20651,944.58735 169.95051,942.57135 174.84651,942.57135 C 176.28651,942.57135 177.29451,942.71535 179.88651,943.14735 L 185.64651,934.79535 C 183.77451,934.50735 182.76651,934.36335 181.47051,934.36335 C 176.28651,934.36335 172.8305,935.51535 168.36651,938.82735 C 159.15052,945.30735 152.67051,951.64335 150.79851,955.81935 C 149.35851,958.98735 146.62251,968.49135 144.75051,976.84335 L 131.93451,1033.1474"
       id="path7942"
       sodipodi:nodetypes="ccsscssccsscssccccsccccccsccscccsccscccccsccscccc" />
    <path
       style="font-size:144px;font-style:italic;font-variant:normal;font-weight:bold;font-stretch:normal;text-align:start;line-height:100%;writing-mode:lr-tb;text-anchor:start;fill:url(#linearGradient8082);fill-opacity:1;stroke:#000000;stroke-width:0.35433072;stroke-linecap:butt;stroke-linejoin:miter;stroke-miterlimit:4;stroke-opacity:1;font-family:URW Chancery L"
       d="M 80.371114,1009.3354 L 74.035124,1024.3114 C 79.075114,1031.0794 85.843124,1034.2474 95.203114,1034.2474 C 117.23509,1034.2474 138.8351,1016.2474 138.8351,997.95939 C 138.8351,992.05539 136.53109,989.03139 125.87511,980.67939 C 115.36312,972.47139 113.63511,970.02339 113.63511,963.83139 C 113.63511,954.47139 120.69112,946.40739 129.1871,946.40739 C 135.2351,946.40739 137.39511,948.99939 138.9791,958.21539 L 148.4831,951.44739 C 147.6191,943.52739 143.29909,939.63939 135.6671,939.63939 C 120.83513,939.63939 103.98711,956.05549 103.98711,970.31139 C 103.98711,976.79139 107.01112,981.54339 115.36311,988.02339 C 125.15511,995.79939 133.46139,1000.4017 133.46139,1007.0257 C 133.46139,1018.2577 116.9471,1027.4794 104.41911,1027.4794 C 98.227124,1027.4794 91.891114,1024.7434 88.003114,1020.4234 C 84.979124,1017.1114 83.827114,1014.0874 82.675114,1007.7514 L 80.371114,1009.3354 M 132.01769,1036.4696 C 133.60169,1035.8936 135.04169,1035.3176 135.47369,1035.1736 C 136.33769,1034.8856 137.77769,1034.4536 139.36169,1033.8776 C 139.79369,1033.7336 141.08969,1033.3016 142.52969,1032.8696 L 148.14569,1007.2376 L 151.45769,1005.2216 C 154.33769,1011.8456 154.91369,1012.9976 159.52169,1023.9416 C 165.71368,1038.6296 169.45769,1044.5336 175.36169,1049.1416 C 181.55368,1053.8936 190.4817,1056.9176 198.11369,1056.9176 C 204.73768,1056.9176 209.48969,1055.4776 213.80969,1051.8776 L 210.92969,1041.5096 C 206.32169,1049.2856 202.14568,1052.3096 196.09769,1052.3096 C 189.90569,1052.3096 183.71368,1047.4136 178.81769,1038.6296 C 175.93769,1033.1576 175.93767,1033.1576 159.52169,998.45364 L 169.16969,989.66964 C 174.78568,984.62964 176.51369,983.62164 179.24969,983.62164 C 181.69769,983.62164 183.42569,984.77364 185.72969,987.79764 L 193.07369,976.85364 C 190.33769,974.69364 188.17769,973.97364 185.00969,973.97364 C 181.26569,973.97364 178.67368,975.26964 174.35369,979.30164 C 169.74569,983.62164 169.60169,983.90964 168.16169,985.20564 L 149.58569,1001.7656 L 155.05769,979.73364 C 159.66568,960.72564 161.24969,956.11764 163.69769,952.08564 C 166.28969,947.90964 170.03369,945.89364 174.92969,945.89364 C 176.36969,945.89364 177.37769,946.03764 179.96969,946.46964 L 185.72969,938.11764 C 183.85769,937.82964 182.84969,937.68564 181.55369,937.68564 C 176.36969,937.68564 172.91368,938.83764 168.44969,942.14964 C 159.2337,948.62964 152.75369,954.96564 150.88169,959.14164 C 149.44169,962.30964 146.70569,971.81364 144.83369,980.16564 L 132.01769,1036.4696"
       id="path7944"
       sodipodi:nodetypes="ccsscssccsscssccccsccccccsccscccsccscccccsccscccc" />
  </g>
</svg>
